<svg width="20.000000" height="20.000000" viewBox="0 0 20 20" fill="none" xmlns="http://www.w3.org/2000/svg" xmlns:xlink="http://www.w3.org/1999/xlink">
	<desc>
			Created with Pixso.
	</desc>
	<defs>
		<clipPath id="clip108_2">
			<rect id="clarity:shopping-cart-line" width="20.000000" height="20.000000" fill="white" fill-opacity="0"></rect>
		</clipPath>
	</defs>
	<rect id="clarity:shopping-cart-line" width="20.000000" height="20.000000" fill="#FFFFFF" fill-opacity="0"></rect>
	<g clip-path="url('#clip108_2')">
		<path id="Vector" d="M8.65 16.52C8.65 17.21 8.09 17.77 7.4 17.77C6.71 17.77 6.15 17.21 6.15 16.52C6.15 15.83 6.71 15.27 7.4 15.27C8.09 15.27 8.65 15.83 8.65 16.52Z" fill="#FFFFFF" fill-opacity="1.000000" fill-rule="evenodd"></path>
		<path id="Vector" d="M16.25 16.52C16.25 17.21 15.69 17.77 15 17.77C14.3 17.77 13.75 17.21 13.75 16.52C13.75 15.83 14.3 15.27 15 15.27C15.69 15.27 16.25 15.83 16.25 16.52Z" fill="#FFFFFF" fill-opacity="1.000000" fill-rule="evenodd"></path>
		<path id="Vector" d="M18.37 2.98C18.32 2.91 18.26 2.86 18.18 2.83C18.11 2.79 18.03 2.77 17.95 2.77L6.38 2.77L6.74 3.88L17.22 3.88L15.73 10.55L7.4 10.55L4.86 2.51C4.83 2.43 4.79 2.35 4.72 2.29C4.66 2.22 4.58 2.18 4.5 2.15L2.22 1.45C2.15 1.43 2.07 1.42 2 1.43C1.93 1.44 1.86 1.46 1.79 1.49C1.66 1.56 1.56 1.68 1.52 1.82C1.48 1.96 1.49 2.11 1.56 2.25C1.63 2.38 1.75 2.47 1.89 2.52L3.88 3.13L6.43 11.18L5.52 11.93L5.45 12C5.23 12.26 5.1 12.59 5.09 12.93C5.08 13.28 5.19 13.61 5.41 13.88C5.56 14.07 5.75 14.21 5.97 14.31C6.19 14.41 6.42 14.45 6.66 14.44L15.93 14.44C16.08 14.44 16.22 14.38 16.33 14.28C16.43 14.17 16.49 14.03 16.49 13.88C16.49 13.74 16.43 13.6 16.33 13.49C16.22 13.39 16.08 13.33 15.93 13.33L6.57 13.33C6.51 13.33 6.45 13.31 6.39 13.27C6.34 13.24 6.29 13.19 6.26 13.14C6.23 13.08 6.21 13.02 6.21 12.96C6.21 12.89 6.23 12.83 6.26 12.77L7.6 11.66L16.18 11.66C16.31 11.66 16.43 11.62 16.53 11.54C16.63 11.47 16.71 11.35 16.73 11.23L18.5 3.45C18.51 3.37 18.51 3.28 18.49 3.2C18.47 3.12 18.43 3.04 18.37 2.98Z" fill="#FFFFFF" fill-opacity="1.000000" fill-rule="nonzero"></path>
	</g>
</svg>
